<svg id="Layer_1" data-name="Layer 1" xmlns="http://www.w3.org/2000/svg" viewBox="0 0 22.4 22.4"><defs><style>.cls-1{fill:#1694d2;}</style></defs><path class="cls-1" d="M.48,9.19a1.18,1.18,0,0,1,.8-.81,1.06,1.06,0,0,1,1.34,1c0,.41,0,.82,0,1.23v.24H3.7c0-.43,0-.85,0-1.27A1.12,1.12,0,0,1,4.93,8.34a8,8,0,0,0,.85,0A.37.37,0,0,0,6.2,8a1.07,1.07,0,0,1,1.2-1H9V5.84H7.39A1.67,1.67,0,0,1,7,5.8a1.06,1.06,0,0,1,.23-2.09h7.22a1,1,0,0,1,1,1,1.06,1.06,0,0,1-1,1.08H12.64V6.92h1.44A1.06,1.06,0,0,1,15.13,8v.65c0,.3.13.43.44.43h.92a1.07,1.07,0,0,1,1.14,1.14c0,.49,0,1,0,1.46v.24h.72c0-.11,0-.23,0-.34a1,1,0,0,1,1.08-1.07,7.52,7.52,0,0,1,1.06,0,1.73,1.73,0,0,1,1.42,1.67c0,1.24,0,2.48,0,3.72a1.77,1.77,0,0,1-1.73,1.71,6.46,6.46,0,0,1-.88,0,1,1,0,0,1-.95-1c0-.12,0-.24,0-.37h-.71c0,.08,0,.16,0,.23,0,.38,0,.77,0,1.15A1.07,1.07,0,0,1,16.5,18.7H9.05a1.16,1.16,0,0,1-.86-.36c-.53-.53-1.07-1.06-1.6-1.6a.55.55,0,0,0-.44-.18c-.45,0-.89,0-1.34,0a1.07,1.07,0,0,1-1.11-1.1V13.72H2.62v1.39a1.06,1.06,0,0,1-.87,1.07,1.08,1.08,0,0,1-1.23-.74.25.25,0,0,0,0-.09ZM12.78,18h3.59c.45,0,.55-.1.55-.54v-6c0-.4,0-.79,0-1.19s-.12-.43-.43-.44h-1A1.06,1.06,0,0,1,14.42,8.7c0-.19,0-.39,0-.58,0-.38-.12-.49-.49-.49H7.4c-.37,0-.45.07-.49.44a1.08,1.08,0,0,1-1.11,1H4.86c-.33,0-.45.12-.45.44v5.9c0,.32.13.44.44.45s.85,0,1.28,0a1.28,1.28,0,0,1,1,.41c.5.53,1,1,1.53,1.55a.6.6,0,0,0,.46.19Zm6.28-3.94V16.5c0,.28.12.41.4.42a6.77,6.77,0,0,0,.78,0,1,1,0,0,0,1-1q0-1.83,0-3.66a1.06,1.06,0,0,0-1-1h-.63c-.35,0-.47.11-.47.46ZM10.84,5.13h3.51c.29,0,.47-.2.41-.45s-.19-.26-.45-.26H7.21A.34.34,0,0,0,7,5a.53.53,0,0,0,.37.14ZM1.91,12.29v-1.8c0-.36,0-.71,0-1.07a.34.34,0,0,0-.35-.36.35.35,0,0,0-.35.34.76.76,0,0,0,0,.15V15a1.28,1.28,0,0,0,0,.19.35.35,0,0,0,.45.29.36.36,0,0,0,.26-.4Zm10-5.38v-1H9.79v1Zm6.43,8.56V12.64h-.68v2.83ZM3.69,13V11.57h-1V13Z"/></svg>