<svg id="Layer_1" data-name="Layer 1" xmlns="http://www.w3.org/2000/svg" viewBox="0 0 47.93 47.93"><defs><style>.cls-1{fill: currentColor;}</style></defs><path class="cls-1" d="M6.55,36.8v-.45q0-6.53,0-13.06a.82.82,0,0,0-.38-.74C5.44,22,4.71,21.46,4,20.92s-.64-1,0-1.46L23.21,5.4c.71-.51.82-.51,1.54,0l4.66,3.4.58.42V6.61c-.64-.27-.72-.39-.72-1.12V2.89c0-.61.27-.88.86-.88h7.38a.74.74,0,0,1,.84.85c0,.9,0,1.8,0,2.69,0,.67-.11.82-.75,1V12c0,.8,0,1.61,0,2.41a.69.69,0,0,0,.33.66l6,4.35c.74.54.74,1,0,1.57s-1.49,1.1-2.22,1.68a.72.72,0,0,0-.27.49q0,6.72,0,13.44c0,.07,0,.15,0,.22a3.1,3.1,0,0,1,3,3.13l.5.21a3,3,0,0,1,1.71,3.32,3,3,0,0,1-2.94,2.46H4.24a3,3,0,0,1-1.11-5.83.53.53,0,0,0,.41-.56A3.1,3.1,0,0,1,6.55,36.8ZM24,11.29l-.31.21L8.41,22.59a.75.75,0,0,0-.35.7V43.92c0,.15,0,.31,0,.46H24.73V27.22c0-.75.23-1,1-1H35.79c.84,0,1.05.21,1.05,1.07V44.38h3c0-.09,0-.16,0-.22q0-10.5,0-21a.8.8,0,0,0-.34-.54c-2.74-2-5.5-4-8.25-6Zm11.33,16.5h-9V44.38h9.05Zm-28-6.3.24-.16L23.19,10c.71-.52.85-.52,1.54,0l8.45,6.15c2.38,1.73,4.77,3.47,7.16,5.19.11.08.34.15.43.09.53-.36,1-.76,1.58-1.17L42,19.91,24.32,7a.49.49,0,0,0-.72,0L5.93,19.93c-.11.08-.21.17-.34.28ZM36.07,6.58H31.54c0,1.22,0,2.4,0,3.58a.6.6,0,0,0,.25.4l3,2.21,1.26.91ZM41.4,44.4c.82,0,1.6,0,2.39,0a1.49,1.49,0,0,0,1.38-1.57,1.53,1.53,0,0,0-1.48-1.44c-.8,0-1-.36-.86-1.16a1.46,1.46,0,0,0-1.43-1.84Zm-34.87-6a1.45,1.45,0,0,0-1.41,1.89c.16.73-.1,1.08-.84,1.11a1.54,1.54,0,0,0-1.51,1.46,1.48,1.48,0,0,0,1.31,1.54c.8.07,1.62,0,2.45,0ZM30.8,5h6V3.55h-6Z"/><path class="cls-1" d="M11.1,32.26c0-1.69,0-3.38,0-5.06,0-.72.24-1,1-1h8.66c.73,0,1,.24,1,1V37.42c0,.68-.25.93-.94.93H12c-.69,0-.94-.25-.94-.93C11.09,35.7,11.1,34,11.1,32.26Zm4.52-4.48h-3V31.5h3Zm1.56,0V31.5h3V27.77Zm-1.56,5.31h-3v3.73h3Zm4.53,3.74V33.09h-3v3.73Z"/><path class="cls-1" d="M28.51,34.57a.73.73,0,0,1,.75.74.75.75,0,1,1-.75-.74Z"/></svg>