<svg id="Layer_1" data-name="Layer 1" xmlns="http://www.w3.org/2000/svg" viewBox="0 0 22.4 22.4"><defs><style>.cls-1{fill:#1694d2;}</style></defs><path class="cls-1" d="M18,18.7a.43.43,0,0,1-.25-.33q-2-7-3.94-13.93c0-.13-.07-.25-.09-.37a.3.3,0,0,1,.22-.36.3.3,0,0,1,.37.22c.09.29.17.58.26.88l3.78,13.37c.07.27,0,.35-.17.52Z"/><path class="cls-1" d="M4.23,18.7c-.23-.17-.25-.25-.17-.52q2-7.08,4-14.16l.06-.16a.29.29,0,0,1,.35-.14.29.29,0,0,1,.22.3,1.13,1.13,0,0,1,0,.18q-2,7.08-4,14.17a.44.44,0,0,1-.26.33Z"/><path class="cls-1" d="M11.14,18.7a.36.36,0,0,1-.25-.39V16c0-.25.13-.4.33-.39a.3.3,0,0,1,.28.24.88.88,0,0,1,0,.16c0,.77,0,1.54,0,2.31a.37.37,0,0,1-.26.41Z"/><path class="cls-1" d="M11.52,12.14v1.18c0,.25-.14.39-.34.37a.27.27,0,0,1-.27-.22.71.71,0,0,1,0-.2V10.94c0-.23.13-.36.32-.36s.3.14.3.36C11.52,11.34,11.52,11.74,11.52,12.14Z"/><path class="cls-1" d="M10.89,7.45c0-.29,0-.59,0-.88s.15-.39.37-.36a.3.3,0,0,1,.24.23.78.78,0,0,1,0,.16c0,.57,0,1.14,0,1.71a.49.49,0,0,1,0,.21.28.28,0,0,1-.31.17.27.27,0,0,1-.26-.23,1.06,1.06,0,0,1,0-.25Z"/><path class="cls-1" d="M11.52,4.33a2.42,2.42,0,0,1,0,.38.31.31,0,0,1-.3.24.28.28,0,0,1-.29-.24,5,5,0,0,1,0-.77.28.28,0,0,1,.29-.24.29.29,0,0,1,.29.24A1.71,1.71,0,0,1,11.52,4.33Z"/></svg>