<svg id="Layer_1" data-name="Layer 1" xmlns="http://www.w3.org/2000/svg" viewBox="0 0 17 17"><defs><style>.cls-1{fill: currentColor;}</style></defs><path class="cls-1" d="M7.75,13a5.06,5.06,0,0,0,3.71-1.53A5,5,0,0,0,13,7.75,5,5,0,0,0,11.46,4,5,5,0,0,0,7.75,2.5,5,5,0,0,0,4,4,5.06,5.06,0,0,0,2.5,7.75,5.06,5.06,0,0,0,4,11.47,5.06,5.06,0,0,0,7.75,13Zm0-2.25A4.81,4.81,0,0,1,5,9.92,4.71,4.71,0,0,1,3.25,7.75a4.78,4.78,0,0,1,4.5-3,4.73,4.73,0,0,1,2.75.84,4.9,4.9,0,0,1,1.75,2.16,4.8,4.8,0,0,1-4.5,3Zm0-1.12a3.71,3.71,0,0,0,1.89-.5A3.45,3.45,0,0,0,11,7.75,3.55,3.55,0,0,0,9.64,6.38a3.62,3.62,0,0,0-1.89-.51,3.67,3.67,0,0,0-1.91.51A3.55,3.55,0,0,0,4.49,7.75,3.45,3.45,0,0,0,5.84,9.13,3.75,3.75,0,0,0,7.75,9.63Zm0-.75a1.13,1.13,0,0,0,.8-.32A1.14,1.14,0,0,0,6.94,7a1.13,1.13,0,0,0,.81,1.93Zm0,5.62A6.57,6.57,0,0,1,5.12,14a6.85,6.85,0,0,1-3.59-3.59,6.77,6.77,0,0,1,0-5.25A7,7,0,0,1,3,3,6.67,6.67,0,0,1,5.12,1.53a6.77,6.77,0,0,1,5.25,0A7,7,0,0,1,14,5.13a6.63,6.63,0,0,1,.53,2.62A6.56,6.56,0,0,1,14.11,10,7.46,7.46,0,0,1,13,12l3,3L14.93,16l-3-3A7.15,7.15,0,0,1,10,14.12,6.73,6.73,0,0,1,7.75,14.5Z"/></svg>