<svg id="Layer_1" data-name="Layer 1" xmlns="http://www.w3.org/2000/svg" viewBox="0 0 47.93 47.93"><defs><style>.cls-1{fill: currentColor;}</style></defs><path class="cls-1" d="M5.49,19H2.29A1.86,1.86,0,0,1,.23,16.89a6.86,6.86,0,0,1,.06-1.28,1.64,1.64,0,0,1,1.54-1.4,23.72,23.72,0,0,1,3,0A1.76,1.76,0,0,1,6.49,16c0,.52,0,1,0,1.57.42.23.63.17.81-.31C8,15.4,8.7,13.5,9.51,11.67a5.23,5.23,0,0,1,3.76-3,6.3,6.3,0,0,1,1.51-.16H33.19a5.62,5.62,0,0,1,4.66,2.16,5,5,0,0,1,.68,1.19c.79,1.94,1.54,3.89,2.32,5.87l.59-.12c0-.54,0-1.05,0-1.55a1.83,1.83,0,0,1,1.83-1.92c.86,0,1.72,0,2.57,0a1.83,1.83,0,0,1,1.86,1.94c0,.32,0,.63,0,.95A1.84,1.84,0,0,1,45.8,19H42.46c.3.26.52.43.73.62a7.41,7.41,0,0,1,2.48,5.67c0,2.11,0,4.22,0,6.34a2.63,2.63,0,0,1-1,2.21.7.7,0,0,0-.19.49c0,1.05,0,2.1,0,3.15a1.82,1.82,0,0,1-1.94,1.94H38.72a1.85,1.85,0,0,1-2-2c0-1,0-2,0-3a.37.37,0,0,0,0-.11H11.16c0,.16,0,.33,0,.5,0,.89,0,1.78,0,2.67a1.83,1.83,0,0,1-2,1.94H5.38a1.8,1.8,0,0,1-1.93-1.94c0-1,0-2,0-3.05a.73.73,0,0,0-.3-.69A2.07,2.07,0,0,1,2.3,32c0-2.61-.09-5.22.05-7.82A6.76,6.76,0,0,1,5,19.4ZM23.93,32.84H43c.9,0,1.23-.33,1.23-1.24,0-1.64,0-3.27,0-4.91a24.43,24.43,0,0,0-.1-2.57,5.87,5.87,0,0,0-5.53-4.95q-14.48,0-28.95,0a6.25,6.25,0,0,0-1.36.17,5.9,5.9,0,0,0-4.58,5.91c0,2.07,0,4.14,0,6.2,0,1.1.29,1.39,1.38,1.39Zm15.36-15.1c-.08-.21-.13-.38-.2-.54q-.89-2.25-1.78-4.51a4.21,4.21,0,0,0-4-2.76q-9.44,0-18.88,0a4.19,4.19,0,0,0-3.93,2.73l-1.8,4.6c-.06.15-.1.29-.17.47ZM4.87,34.29c0,1.11,0,2.2,0,3.29,0,.13.28.36.44.37,1.3,0,2.6,0,3.9,0,.17,0,.46-.26.46-.4,0-1.08,0-2.15,0-3.25Zm33.34,0c0,1.11,0,2.17,0,3.22a.63.63,0,0,0,.44.43c1.3,0,2.6,0,3.9,0,.16,0,.45-.24.45-.37,0-1.09,0-2.18,0-3.29ZM5.08,17.55c0-.51,0-.95,0-1.39a.5.5,0,0,0-.57-.59H3c-1.56,0-1.34,0-1.35,1.51a.43.43,0,0,0,.49.47Zm37.77,0h2.93c.54,0,.51-.4.51-.78,0-1.1,0-1.2-.52-1.21-.81,0-1.62,0-2.43,0a.45.45,0,0,0-.49.47C42.84,16.52,42.85,17,42.85,17.55Z"/><path class="cls-1" d="M23.94,27.2H15.41c-1.13,0-1.58-.51-1.47-1.64a3.73,3.73,0,0,1,3.41-3.34,4.53,4.53,0,0,1,.52,0c4.07,0,8.13,0,12.2,0a3.76,3.76,0,0,1,3.85,2.91,4.2,4.2,0,0,1,.11.71,1.23,1.23,0,0,1-1.27,1.39c-1.45,0-2.9,0-4.34,0Zm8.66-1.43a3.26,3.26,0,0,0-.12-.55A2.4,2.4,0,0,0,30,23.59H17.94a3.8,3.8,0,0,0-.75.06,2.21,2.21,0,0,0-1.8,2.11Z"/><path class="cls-1" d="M24,30.92H14.29c-.18,0-.4.06-.52,0a1.46,1.46,0,0,1-.56-.6.55.55,0,0,1,.42-.7,1.77,1.77,0,0,1,.61-.08H33.69a1.82,1.82,0,0,1,.33,0,.7.7,0,0,1,.72.73.68.68,0,0,1-.76.67H24Z"/><path class="cls-1" d="M35.32,24.27a3.19,3.19,0,1,1,3.18,3.19A3.19,3.19,0,0,1,35.32,24.27Zm3.17-1.76a1.74,1.74,0,0,0-1.75,1.8,1.77,1.77,0,0,0,1.77,1.74,1.81,1.81,0,0,0,1.76-1.81A1.77,1.77,0,0,0,38.49,22.51Z"/><path class="cls-1" d="M6.23,24.25a3.18,3.18,0,0,1,3.2-3.16,3.18,3.18,0,0,1,0,6.36A3.19,3.19,0,0,1,6.23,24.25Zm3.19-1.74a1.75,1.75,0,0,0-1.77,1.73A1.78,1.78,0,0,0,9.41,26a1.8,1.8,0,0,0,1.76-1.77A1.77,1.77,0,0,0,9.42,22.51Z"/></svg>