<svg id="Layer_1" data-name="Layer 1" xmlns="http://www.w3.org/2000/svg" viewBox="0 0 22.4 22.4"><defs><style>.cls-1{fill:#1694d2;}</style></defs><path class="cls-1" d="M15.08,17.16c-.59,0-1.19,0-1.78,0-.11,0-.16,0-.2.15a2,2,0,0,1-3.8,0,.18.18,0,0,0-.21-.15c-1.16,0-2.32,0-3.49,0A1,1,0,0,1,5.16,17a6.85,6.85,0,0,1-2.09-1.77,4.35,4.35,0,0,1-.89-3A9,9,0,0,1,4.2,7a8.69,8.69,0,0,1,5.87-3.26A8.76,8.76,0,0,1,17.8,6.57a8.74,8.74,0,0,1,2.36,5.06,5.09,5.09,0,0,1-.1,2.23,5.25,5.25,0,0,1-2,2.63,2.28,2.28,0,0,1-2,.67ZM4.85,9.69,5,9.86l1.26,1.26a.47.47,0,0,1,0,.69.47.47,0,0,1-.7-.05L4.44,10.58l-.26-.27A3.25,3.25,0,0,0,3.38,14a5.15,5.15,0,0,0,1.93,2.05.94.94,0,0,0,.63.18c.29,0,.58,0,.87,0H9.09c.07,0,.18,0,.19-.09a2.28,2.28,0,0,1,.55-.9l-.51-.89-.91-1.57a.46.46,0,0,1,.32-.72.49.49,0,0,1,.49.3c.44.76.89,1.52,1.32,2.28.06.09.1.14.22.12a2,2,0,0,1,2.34,1.34.19.19,0,0,0,.22.15h3.36a.44.44,0,0,0,.23-.06,5.94,5.94,0,0,0,1.36-1.08,3.24,3.24,0,0,0,.12-4.63c0-.05-.07-.11-.11-.17l-.12.1-1.39,1.4a.47.47,0,0,1-.67,0,.45.45,0,0,1,0-.66l.42-.43,1-1a10.78,10.78,0,0,0-5.92-1.85c0,.52,0,1,0,1.47a.47.47,0,0,1-.47.46.45.45,0,0,1-.44-.46c0-.32,0-.65,0-1V7.86A10.67,10.67,0,0,0,4.85,9.69Zm-1-.35A11.14,11.14,0,0,1,11.2,6.93a11.14,11.14,0,0,1,7.35,2.41,8.07,8.07,0,0,0-14.69,0Zm8.42,7.37a1.08,1.08,0,1,0-1.08,1.06A1.07,1.07,0,0,0,12.28,16.71Z"/></svg>