<svg id="Layer_1" data-name="Layer 1" xmlns="http://www.w3.org/2000/svg" viewBox="0 0 22.4 22.4"><defs><style>.cls-1{fill:#1694d2;}</style></defs><path class="cls-1" d="M18.7,8.48v4.71l0,.14a2.16,2.16,0,0,1-1.84,1.79c-.49.05-1,0-1.47,0h-.17c0,.31,0,.61,0,.91a.21.21,0,0,0,.08.11,1.29,1.29,0,0,1,.79,1.24c0,.23,0,.46,0,.69a.54.54,0,0,1-.33.59H4a.47.47,0,0,1-.32-.43c0-.32,0-.64,0-1a1.27,1.27,0,0,1,.72-1.1A.23.23,0,0,0,4.59,16c0-3.62,0-7.23,0-10.85A1.33,1.33,0,0,1,5.94,3.7h7.89a1.4,1.4,0,0,1,.61.14,1.29,1.29,0,0,1,.75,1.27v9.16h.15c.44,0,.87,0,1.31,0a1.25,1.25,0,0,0,1.13-1,2.76,2.76,0,0,0,0-.64c0-.33,0-.65,0-1a1.77,1.77,0,0,1-.37-3.5l-.9-1.36c-.14-.21-.28-.41-.41-.62a.44.44,0,0,1,.27-.67.45.45,0,0,1,.49.24c.54.8,1.08,1.6,1.61,2.41A3.54,3.54,0,0,1,18.7,8.48ZM5.46,16.05h8.85V5.14c0-.41-.16-.56-.56-.56H6c-.43,0-.58.15-.58.57v10.9Zm9.73,1.77v-.31c0-.42-.15-.57-.57-.57H5a.38.38,0,0,0-.38.32,3.35,3.35,0,0,0,0,.55Zm2.62-7.06V9a.88.88,0,0,0-.87.86A.9.9,0,0,0,17.81,10.76Z"/><path class="cls-1" d="M9.89,9h-3c-.36,0-.53-.16-.53-.52V6a.46.46,0,0,1,.53-.53h6a.46.46,0,0,1,.53.53V8.48c0,.36-.17.52-.53.52Zm2.65-2.68H7.23v1.8h5.31Z"/><path class="cls-1" d="M9.88,15.17A2.23,2.23,0,0,1,7.69,13a1.79,1.79,0,0,1,.22-.87A8,8,0,0,1,9.58,10a.4.4,0,0,1,.58,0,7.73,7.73,0,0,1,1.74,2.24A2.1,2.1,0,0,1,10.68,15a2.91,2.91,0,0,1-.39.12Zm0-4.22a7,7,0,0,0-1.15,1.52,1.23,1.23,0,0,0-.15.55,1.3,1.3,0,0,0,2,1.05,1.21,1.21,0,0,0,.5-1.54A7,7,0,0,0,9.88,11Z"/></svg>