<svg id="Layer_1" data-name="Layer 1" xmlns="http://www.w3.org/2000/svg" viewBox="0 0 17 17"><defs><style>.cls-1{fill: currentColor;}</style></defs><path class="cls-1" d="M8.5,16.55A7.78,7.78,0,0,1,5,15.87q-1.35-.67-1.35-1.74A1.53,1.53,0,0,1,4,13.24a2.52,2.52,0,0,1,.82-.72l1.27,1.19-.4.18a1.08,1.08,0,0,0-.33.24,2.36,2.36,0,0,0,1.21.57,8,8,0,0,0,2,.24,8.13,8.13,0,0,0,2-.24,2.36,2.36,0,0,0,1.22-.57,1.38,1.38,0,0,0-.36-.26l-.43-.18,1.25-1.21a2.7,2.7,0,0,1,.87.74,1.51,1.51,0,0,1,.3.91q0,1.06-1.35,1.74A7.78,7.78,0,0,1,8.5,16.55Zm0-4.43a12.56,12.56,0,0,0,3-2.95,5.21,5.21,0,0,0,1-3,3.74,3.74,0,0,0-1.3-3.1,4.32,4.32,0,0,0-2.72-1,4.32,4.32,0,0,0-2.72,1,3.74,3.74,0,0,0-1.3,3.1,5.06,5.06,0,0,0,1,2.8A14.72,14.72,0,0,0,8.52,12.12Zm0,2a18.82,18.82,0,0,1-4.23-4.06,6.64,6.64,0,0,1-1.4-3.86A5.8,5.8,0,0,1,3.38,3.7,5.53,5.53,0,0,1,4.7,1.9,5.38,5.38,0,0,1,6.51.82a5.54,5.54,0,0,1,4,0A5.38,5.38,0,0,1,12.3,1.9a5.53,5.53,0,0,1,1.32,1.8,5.8,5.8,0,0,1,.51,2.51,6.64,6.64,0,0,1-1.4,3.86A18.82,18.82,0,0,1,8.5,14.13Zm0-6.43a1.62,1.62,0,0,0,1.61-1.61A1.61,1.61,0,0,0,7.36,5a1.61,1.61,0,0,0,0,2.27A1.56,1.56,0,0,0,8.5,7.7Z"/></svg>