<svg id="Layer_1" data-name="Layer 1" xmlns="http://www.w3.org/2000/svg" viewBox="0 0 47.93 47.93"><defs><style>.cls-1{fill: currentColor;}</style></defs><path class="cls-1" d="M25.59,2a3.65,3.65,0,0,1,2.24,2q5.66,9.87,11.36,19.69A3,3,0,0,1,39.57,26a2.73,2.73,0,0,1-4.32,1.37.75.75,0,0,0-.56-.17c-4.28.87-8.55,1.77-12.82,2.66l-.13.07A2.5,2.5,0,0,1,21,33.35a2.55,2.55,0,0,0,.13.29c1.23,2.13,2.44,4.27,3.7,6.37a3.4,3.4,0,0,0,1,.84,1.76,1.76,0,0,1,.85,1.32,1.63,1.63,0,0,1-.86,1.65c-1.06.62-2.12,1.23-3.19,1.83A1.66,1.66,0,0,1,20.16,45q-2.27-3.9-4.52-7.82l-.28-.47a7.4,7.4,0,0,1-1.49.17A2.3,2.3,0,0,1,12,35.64l-1-1.75c-.64.16-1.25.36-1.87.46A6.28,6.28,0,0,1,5.25,22.63c1.19-.69,2.4-1.38,3.59-2.08A3.12,3.12,0,0,0,9.5,20c1.28-1.42,2.55-2.85,3.83-4.28a.9.9,0,0,1,.94-.36.71.71,0,0,1,.62.67,1.45,1.45,0,0,1-.32.87c-1.14,1.33-2.33,2.63-3.5,3.94l-.24.29c.73,1.25,1.45,2.51,2.18,3.77S14.6,27.65,15.38,29a.54.54,0,0,0,.69.33l8.62-1.81,9-1.88a2.18,2.18,0,0,0,.29-.09L23.34,7.14l-.93,1c-.82.92-1.63,1.84-2.45,2.75a.93.93,0,0,1-1.15.3.87.87,0,0,1-.17-1.42c1.19-1.34,2.4-2.68,3.59-4a.82.82,0,0,0,.18-.56,2.72,2.72,0,0,1,2-3.11A.39.39,0,0,0,24.56,2ZM9.44,22.2c-1.23.72-2.45,1.38-3.61,2.11a4.51,4.51,0,0,0-1.56,6,4.46,4.46,0,0,0,5.79,2c1.35-.62,2.62-1.44,3.95-2.19ZM38,25.15a5.69,5.69,0,0,0-.28-.62q-5.78-10-11.57-20a2.65,2.65,0,0,0-.26-.39.93.93,0,0,0-1.08-.29.89.89,0,0,0-.64,1,1.92,1.92,0,0,0,.26.75L36,25.55a2.34,2.34,0,0,0,.25.39.94.94,0,0,0,1.09.26A1,1,0,0,0,38,25.15ZM16.81,35.72l4.88,8.45,3.17-1.83A4.36,4.36,0,0,0,24.4,42a3.08,3.08,0,0,1-1.26-1.34c-1.15-2-2.33-4.06-3.5-6.08l-.24-.38ZM12.48,33l.93,1.62c.37.64.65.71,1.29.35l4.81-2.78c1-.59,1.07-.79.42-1.79l-.06,0-1.61.32a15.84,15.84,0,0,0-2.78.64A26.23,26.23,0,0,0,12.48,33Z"/><path class="cls-1" d="M45.92,7.15c-.22.2-.4.47-.65.57a.8.8,0,0,1-1-.5.86.86,0,0,1,.39-1.07.84.84,0,0,1,1.1.25c.06.07.11.16.17.24Z"/><path class="cls-1" d="M43.26,8.61c-.09.12-.22.44-.46.58q-2.73,1.62-5.51,3.19a.86.86,0,1,1-.84-1.5Q39.2,9.28,42,7.7C42.56,7.36,43.25,7.77,43.26,8.61Z"/><path class="cls-1" d="M38.3,4a3.21,3.21,0,0,1-.19.44c-.82,1.44-1.64,2.87-2.48,4.3a.87.87,0,0,1-1.24.45.88.88,0,0,1-.26-1.3l2.53-4.37a.87.87,0,0,1,1-.47A.89.89,0,0,1,38.3,4Z"/><path class="cls-1" d="M41.26,14.13c.67,0,1.34,0,2,0a.86.86,0,0,1,.83.5.7.7,0,0,1-.11.87,1.3,1.3,0,0,1-.77.35c-1.33,0-2.65,0-4,0a.88.88,0,1,1,0-1.75c.67,0,1.34,0,2,0Z"/><path class="cls-1" d="M16.64,12.47a.87.87,0,0,1,.87.87.88.88,0,0,1-.9.84.86.86,0,0,1,0-1.71Z"/></svg>