<svg id="Layer_1" data-name="Layer 1" xmlns="http://www.w3.org/2000/svg" viewBox="0 0 47.93 47.93"><defs><style>.cls-1{fill: currentColor;}</style></defs><path class="cls-1" d="M1.74,17.64a3.87,3.87,0,0,1,.67-.82A1.34,1.34,0,0,1,4,16.88q3.95,2.36,7.9,4.7c1.12.68,2.25,1.36,3.39,2a2.16,2.16,0,0,1,1.23,2,.42.42,0,0,0,.17.3,2.23,2.23,0,0,0,2.21.31c.39-.16.79-.28,1.17-.45a3.69,3.69,0,0,1,3.53.21,1.18,1.18,0,0,0,.72.09c.71-.15,1.4-.35,2.1-.52a3.16,3.16,0,0,1,2.08.13,13.13,13.13,0,0,0,1.79.63,4.53,4.53,0,0,0,1.22,0c-.2-1.56.06-2.07,1.35-2.83l11-6.58a1.54,1.54,0,0,1,1.39-.24A1.34,1.34,0,0,1,46.19,18c0,4.4,0,8.8,0,13.2a2.36,2.36,0,0,1-1.12,2c-.41.28-.85.53-1.29.78a.66.66,0,1,1-.65-1.14l1.12-.67A1.27,1.27,0,0,0,44.89,31V18.13a1.51,1.51,0,0,0,0-.22l-.39.2q-5.55,3.3-11.09,6.61c-.74.44-.81.71-.38,1.43l5.15,8.64c.31.52.61.6,1.15.29.36-.21.72-.44,1.08-.64a.66.66,0,0,1,.94.22.64.64,0,0,1-.26.9,15.16,15.16,0,0,1-1.34.79,1.81,1.81,0,0,1-1.94-.08.7.7,0,0,0-1,.1,2.3,2.3,0,0,1,0,2.94,2.27,2.27,0,0,1-2.65.71,2.38,2.38,0,0,1-1,1.67A2.27,2.27,0,0,1,31.2,42a2.41,2.41,0,0,1-1.26,1.91,2.36,2.36,0,0,1-2.26-.06c-.07.23-.12.43-.2.63a2.28,2.28,0,0,1-3.22,1.13c-.52-.28-1-.61-1.54-.89a.38.38,0,0,0-.36,0c-1.5,1.14-2.93.86-3.83-.78a2.49,2.49,0,0,1-2-.1,2.32,2.32,0,0,1-1.2-1.65,2.36,2.36,0,0,1-2.68-1.9c-1.46-.09-2.23-.57-2.57-1.59-.39-1.21.29-2.08,1-2.95L11,35.69a1.59,1.59,0,0,0-.26.14,2,2,0,0,1-2.78.36c-1.44-.86-2.86-1.74-4.32-2.57a3.48,3.48,0,0,1-1.87-2.09ZM23.28,43.53c.5.3,1,.6,1.47.88a1,1,0,0,0,1.45-.27,1,1,0,0,0-.46-1.43c-.4-.24-.8-.46-1.19-.71a.65.65,0,1,1,.67-1.12l.3.17c.93.55,1.86,1.11,2.8,1.65a1,1,0,0,0,1.52-.62,1,1,0,0,0-.59-1.1L26,39.06a.66.66,0,1,1,.67-1.13l1,.59,3.54,2.1a1,1,0,0,0,1.1,0,.79.79,0,0,0,.39-.94,1.5,1.5,0,0,0-.55-.76c-1.15-.72-2.33-1.4-3.5-2.09-.35-.21-.7-.4-1-.62a.63.63,0,0,1-.24-.9.67.67,0,0,1,.92-.22c.09,0,.17.1.26.15l4.25,2.52c.55.32,1.08.66,1.64,1A1,1,0,0,0,35.94,38a1.09,1.09,0,0,0-.67-1.07l-8.21-4.85-.82-.48a3.15,3.15,0,0,1-2.7,2.08,1.45,1.45,0,0,1-1.65-1.47c0-.8,0-1.59,0-2.39a3.6,3.6,0,0,1,.79-2.75,1.81,1.81,0,0,0-1.57-.22c-.6.21-1.19.44-1.79.66a3.51,3.51,0,0,1-3-.24l-.37-.19-4.4,7.42a.64.64,0,0,0,.76.15,3.62,3.62,0,0,1,1.31-.15,2.23,2.23,0,0,1,1.62,1.12,2.29,2.29,0,0,1,3.82.87.43.43,0,0,0,.51.36,2.22,2.22,0,0,1,2.24,1.9,8.53,8.53,0,0,1,0,1.24A2.35,2.35,0,0,1,23.28,43.53ZM3.06,17.89c0,.16,0,.23,0,.3V30.91a1.41,1.41,0,0,0,.74,1.28L8.55,35c.66.39,1,.32,1.34-.34Q12.44,30.39,15,26.1c.39-.65.31-1-.34-1.35L3.57,18.16A5.56,5.56,0,0,0,3.06,17.89Zm29.13,9.5a4,4,0,0,1-3.5-.2l-.6-.24a2.16,2.16,0,0,0-1.44-.09c-.66.18-1.32.34-2,.5a1.83,1.83,0,0,0-1.5,1.91v2.48c0,.63.11.71.71.49a1.68,1.68,0,0,0,1.16-1.61c.05-.75.5-1,1.15-.61l.23.13,8.76,5.18c.13.08.34.17.45.11a8.38,8.38,0,0,0,1-.58ZM13.91,39.92a1.06,1.06,0,0,0,.73.93.94.94,0,0,0,1.13-.4c.63-.87,1.25-1.73,1.86-2.61a1,1,0,0,0-.19-1.44,1,1,0,0,0-1.39.31c-.64.86-1.26,1.72-1.87,2.6A4.18,4.18,0,0,0,13.91,39.92Zm6.61-.66a1,1,0,0,0-.65-1.06.92.92,0,0,0-1.11.35c-.66.9-1.31,1.8-2,2.71a1,1,0,0,0,.24,1.38,1,1,0,0,0,1.37-.27q1-1.3,1.89-2.64A2.37,2.37,0,0,0,20.52,39.26Zm-7.38-3.58a2.61,2.61,0,0,0-.67.41,13.13,13.13,0,0,0-1,1.44,1,1,0,0,0,.27,1.28A.92.92,0,0,0,13,38.66,10.73,10.73,0,0,0,14,37.19,1,1,0,0,0,13.14,35.68Zm9.19,6.65a1,1,0,0,0-.63-1,.87.87,0,0,0-1.08.27,9,9,0,0,0-.74,1,1,1,0,0,0,1.58,1.13,9.37,9.37,0,0,0,.7-1A1.64,1.64,0,0,0,22.33,42.33Z"/><path class="cls-1" d="M18.47,12.34a4.2,4.2,0,0,1-3.11-1c0,.43,0,.76,0,1.1a.66.66,0,0,1-.68.73c-.38,0-.62-.27-.63-.73,0-1.63,0-3.27,0-4.9a2.38,2.38,0,0,1,2.4-2.35c1,0,2.06,0,3.09,0h.53c0-.33,0-.63,0-.93A2.18,2.18,0,0,1,22.35,2c1.09,0,2.17,0,3.26,0a2.17,2.17,0,0,1,2.24,2.2c0,.32,0,.63,0,1h3a5.53,5.53,0,0,1,1.29.11,2.29,2.29,0,0,1,1.72,2.19q0,4.59,0,9.16A2.41,2.41,0,0,1,31.34,19H23.75c-2.33,0-4.66,0-7,0a2.53,2.53,0,0,1-2.71-2.7c0-.23,0-.46,0-.69a.63.63,0,0,1,.63-.68.65.65,0,0,1,.67.69c0,.29,0,.58,0,.87a1.12,1.12,0,0,0,1.05,1.16l.43,0q7.13,0,14.24,0a2.15,2.15,0,0,0,1.08-.31,1,1,0,0,0,.38-.69c0-1.73,0-3.47,0-5.29a4.14,4.14,0,0,1-3.06,1c-.11.56.17,1.32-.72,1.37-.45,0-.58-.27-.66-1.33H19.79c0,.19,0,.4,0,.61a.68.68,0,0,1-.65.73.66.66,0,0,1-.66-.7C18.46,12.82,18.47,12.61,18.47,12.34Zm11-1.33a2.71,2.71,0,0,0,2-.44,2.83,2.83,0,0,0,1.14-2.66c0-1-.43-1.39-1.41-1.39H16.59a1.15,1.15,0,0,0-1.23,1.22v.69A2.63,2.63,0,0,0,18.45,11c.08-.51-.18-1.33.7-1.31s.59.79.66,1.33h8.31c.08-.53-.16-1.31.66-1.33S29.39,10.49,29.49,11Zm-8-5.84h5.06V4.41c0-.79-.28-1.08-1.07-1.08s-1.61,0-2.42,0c-1.75-.07-1.64.47-1.6,1.75A.26.26,0,0,0,21.46,5.17Z"/></svg>